<?xml version="1.0" encoding="UTF-8"?>
<svg id="Layer_1" xmlns="http://www.w3.org/2000/svg" xmlns:xlink="http://www.w3.org/1999/xlink" version="1.1" viewBox="0 0 839 1000">
  <!-- Generator: Adobe Illustrator 29.6.1, SVG Export Plug-In . SVG Version: 2.1.1 Build 9)  -->
  <defs>
    <style>
      .st0 {
        fill: #27a9bb;
      }

      .st1 {
        fill: #184c94;
      }

      .st2 {
        fill: #f2c735;
      }

      .st3 {
        fill: #1d1d1b;
      }

      .st4 {
        fill: url(#Dégradé_sans_nom_325);
      }

      .st5 {
        fill: #0382b4;
      }

      .st6 {
        fill: #3f7cb5;
      }

      .st7 {
        fill: #2a68ad;
      }
    </style>
    <linearGradient id="Dégradé_sans_nom_325" data-name="Dégradé sans nom 325" x1="296.3" y1="583.3" x2="546.1" y2="150.6" gradientUnits="userSpaceOnUse">
      <stop offset="0" stop-color="#d5cf3d"/>
      <stop offset=".3" stop-color="#008dd1"/>
      <stop offset="1" stop-color="#379f55"/>
    </linearGradient>
  </defs>
  <g>
    <path class="st4" d="M567.8,555.3h-281.2c-80.2,0-145.4-65.2-145.4-145.4,0-80.2,65.2-145.4,145.4-145.4h12.9s0-4.5,0-4.5c0-80.2,65.2-145.4,145.4-145.4,80.2,0,145.4,65.2,145.4,145.4v295.2s0,0,0,0h-22.4ZM444.9,159.5c-55.4,0-100.5,45.1-100.5,100.5v49.2s-57.7.1-57.7.1c-55.5,0-100.6,45.1-100.6,100.5,0,55.4,45.1,100.5,100.5,100.5h258.9s0-250.4,0-250.4c0-55.4-45.1-100.5-100.5-100.5Z"/>
    <g>
      <rect class="st5" x="545.3" y="510.3" width="45.1" height="45.1"/>
      <rect class="st1" x="545.3" y="465.3" width="45.1" height="45.1"/>
      <rect class="st0" x="545.3" y="555.4" width="45.1" height="45.1"/>
      <rect class="st6" x="590.3" y="510.3" width="45.1" height="45.1"/>
      <rect class="st7" x="500.2" y="510.3" width="45.1" height="45.1"/>
    </g>
  </g>
  <g>
    <path class="st3" d="M76.6,835.7h13.5l23.4,57.2h.9l23.4-57.2h13.5v73.6h-10.6v-53.3h-.7l-21.7,53.2h-8.8l-21.7-53.2h-.7v53.3h-10.6v-73.6Z"/>
    <path class="st3" d="M173.4,929.9c-1.6,0-3.1-.1-4.4-.4-1.3-.3-2.3-.5-2.9-.8l2.6-8.8c2.9.8,5.4.9,7.4.2,2-.7,3.7-2.8,5-6.4l1.3-3.7-20.2-55.9h11.5l14,42.8h.6l14-42.8h11.6c0,.1-22.8,62.6-22.8,62.6-1.1,2.9-2.4,5.3-4,7.2-1.6,2-3.6,3.5-5.8,4.5-2.3,1-4.9,1.5-7.8,1.5Z"/>
    <path class="st3" d="M224.9,909.4v-73.6h11.1v32h36.7v-32h11.1v73.6h-11.1v-32.1h-36.7v32.1h-11.1Z"/>
    <path class="st3" d="M322.9,910.5c-5.4,0-10.1-1.2-14-3.5-3.9-2.3-6.9-5.6-9.1-9.9-2.1-4.3-3.2-9.2-3.2-15s1.1-10.6,3.2-15c2.1-4.3,5.1-7.7,8.9-10.1,3.8-2.4,8.3-3.6,13.4-3.6s6.1.5,9.1,1.5c2.9,1,5.5,2.6,7.9,4.9,2.3,2.2,4.2,5.1,5.5,8.6,1.3,3.5,2,7.8,2,12.8v3.8h-43.9v-8.1h33.4c0-2.8-.6-5.3-1.7-7.5-1.2-2.2-2.8-3.9-4.8-5.2-2.1-1.3-4.5-1.9-7.3-1.9s-5.6.7-7.9,2.2c-2.2,1.5-4,3.4-5.2,5.8-1.2,2.4-1.8,4.9-1.8,7.7v6.3c0,3.7.7,6.8,2,9.4,1.3,2.6,3.1,4.6,5.5,5.9,2.3,1.4,5.1,2,8.2,2s3.9-.3,5.6-.9c1.7-.6,3.1-1.5,4.3-2.6,1.2-1.2,2.2-2.6,2.8-4.3l10.2,1.8c-.8,3-2.3,5.6-4.4,7.9-2.1,2.2-4.7,4-7.9,5.2-3.2,1.2-6.7,1.9-10.8,1.9Z"/>
    <path class="st3" d="M374.6,910.6c-3.5,0-6.7-.7-9.5-2-2.8-1.3-5.1-3.2-6.7-5.7-1.6-2.5-2.5-5.5-2.5-9.2s.6-5.7,1.8-7.7,2.8-3.6,4.9-4.8c2-1.2,4.3-2.1,6.8-2.7,2.5-.6,5.1-1.1,7.7-1.4,3.3-.4,6-.7,8.1-1,2.1-.3,3.6-.7,4.5-1.2.9-.6,1.4-1.5,1.4-2.8v-.3c0-3.1-.9-5.6-2.6-7.3-1.8-1.7-4.4-2.6-7.9-2.6s-6.5.8-8.5,2.4c-2.1,1.6-3.5,3.4-4.3,5.3l-10.1-2.3c1.2-3.4,3-6.1,5.3-8.1,2.3-2.1,5-3.6,8-4.5,3-.9,6.2-1.4,9.5-1.4s4.5.3,7,.8c2.5.5,4.8,1.5,7,2.8,2.2,1.4,3.9,3.3,5.3,5.8,1.4,2.5,2.1,5.8,2.1,9.8v36.7h-10.5v-7.5h-.4c-.7,1.4-1.7,2.8-3.1,4.1s-3.2,2.5-5.4,3.3c-2.2.9-4.8,1.3-7.8,1.3ZM377,902c3,0,5.5-.6,7.6-1.8s3.7-2.7,4.9-4.6,1.7-3.9,1.7-6.1v-7.1c-.4.4-1.1.7-2.2,1.1-1.1.3-2.3.6-3.7.8-1.4.2-2.7.4-4.1.6-1.3.2-2.4.3-3.3.4-2.1.3-4,.7-5.7,1.3-1.7.6-3.1,1.5-4.1,2.7-1,1.2-1.5,2.7-1.5,4.6s1,4.7,2.9,6c2,1.4,4.5,2,7.5,2Z"/>
    <path class="st3" d="M426.9,835.7v73.6h-10.7v-73.6h10.7Z"/>
    <path class="st3" d="M467.2,854.2v8.6h-30.2v-8.6h30.2ZM445.1,840.9h10.7v52.2c0,2.1.3,3.6.9,4.7.6,1,1.4,1.7,2.4,2.1,1,.4,2.1.6,3.3.6s1.6,0,2.3-.2c.6-.1,1.2-.2,1.5-.3l1.9,8.9c-.6.2-1.5.5-2.7.7-1.2.3-2.6.4-4.3.4-2.8,0-5.5-.5-7.9-1.5-2.4-1.1-4.4-2.7-5.9-4.9-1.5-2.2-2.3-5-2.3-8.3v-54.5Z"/>
    <path class="st3" d="M490.9,876.6v32.8h-10.7v-73.6h10.6v27.4h.7c1.3-3,3.3-5.3,5.9-7.1,2.7-1.7,6.1-2.6,10.4-2.6s7.1.8,9.9,2.3c2.8,1.6,5,3.9,6.6,7,1.6,3.1,2.4,6.9,2.4,11.5v35.1h-10.7v-33.8c0-4-1-7.2-3.1-9.4-2.1-2.2-5-3.4-8.7-3.4s-4.8.5-6.8,1.6c-2,1.1-3.6,2.7-4.7,4.7-1.1,2.1-1.7,4.6-1.7,7.5Z"/>
    <path class="st3" d="M585.4,929.4c-7.4,0-14-1-19.8-3-5.7-2-10.6-5-14.5-8.9s-6.9-8.7-8.9-14.4c-2-5.7-3.1-12.2-3.1-19.4s1-13.5,3.1-19.1c2.1-5.7,5.1-10.5,9-14.5,3.9-4,8.7-7,14.4-9.1,5.7-2.1,12.1-3.2,19.3-3.2s12.9,1.1,18.2,3.2c5.2,2.2,9.7,5.1,13.2,8.9,3.6,3.8,6.3,8.1,8.1,12.9,1.8,4.9,2.7,10,2.7,15.4s-.2,7.5-.7,11.1c-.5,3.6-1.4,6.9-2.6,9.8-1.3,2.9-3.1,5.2-5.5,7s-5.5,2.6-9.4,2.7c-2,0-4-.2-5.9-.7-1.9-.6-3.5-1.4-4.9-2.7-1.3-1.2-2.2-2.8-2.4-4.7h-.4c-.6,1.4-1.5,2.7-2.9,3.9-1.3,1.2-3,2.2-5.1,2.9-2.1.7-4.5,1-7.2.9-3-.1-5.7-.8-8.2-2-2.4-1.2-4.5-3-6.2-5.2-1.7-2.2-3-4.8-3.9-7.8-.9-3-1.4-6.4-1.4-10.1s.5-6.7,1.5-9.5,2.4-5.2,4.2-7.3c1.8-2,3.8-3.7,6.2-4.9,2.3-1.2,4.8-2,7.4-2.3,2.5-.3,4.8-.2,6.9.2,2.1.4,3.9,1.1,5.3,2s2.3,1.9,2.6,2.9h.5v-4h8.8v33.4c0,1.9.5,3.5,1.5,4.8,1,1.3,2.4,2,4.3,2s3.9-.8,5.1-2.4c1.2-1.6,2.1-4.1,2.6-7.4.5-3.3.8-7.6.8-12.8s-.5-7.1-1.5-10.3-2.4-6.1-4.3-8.8c-1.9-2.6-4.2-4.9-6.9-6.8s-5.8-3.4-9.3-4.4c-3.5-1-7.3-1.5-11.6-1.5s-10.8.9-15.3,2.6c-4.5,1.8-8.2,4.3-11.3,7.6-3.1,3.3-5.4,7.3-6.9,11.9-1.6,4.6-2.4,9.8-2.4,15.5s.8,11.3,2.4,15.9,4,8.5,7.1,11.7c3.1,3.2,7,5.6,11.6,7.2,4.6,1.6,10,2.5,16,2.5s5.3-.2,7.9-.7c2.6-.5,4.9-1,6.9-1.6,2-.6,3.5-1.1,4.5-1.4l2.5,7.9c-1.5.7-3.5,1.4-5.9,2-2.5.7-5.1,1.2-8,1.7s-5.7.6-8.5.6ZM582.1,899.5c3.1,0,5.6-.6,7.5-1.9s3.3-3.1,4.1-5.6c.8-2.5,1.3-5.6,1.3-9.3,0-3.6-.5-6.5-1.4-8.7-.9-2.2-2.3-3.7-4.2-4.7-1.9-.9-4.3-1.4-7.2-1.4s-5,.7-6.9,2c-1.9,1.3-3.4,3.1-4.3,5.4s-1.5,4.8-1.5,7.5c0,2.9.4,5.6,1.2,8.2.8,2.6,2.1,4.6,4,6.2,1.8,1.6,4.3,2.4,7.5,2.4Z"/>
    <path class="st3" d="M639.9,909.4v-73.6h46.2v9.6h-35v22.4h32.6v9.5h-32.6v22.5h35.5v9.6h-46.6Z"/>
    <path class="st3" d="M748.3,835.7h11.1v48.4c0,5.2-1.2,9.7-3.6,13.7-2.4,4-5.8,7.1-10.2,9.3-4.4,2.3-9.5,3.4-15.4,3.4s-11-1.1-15.4-3.4c-4.4-2.3-7.8-5.4-10.2-9.3s-3.6-8.5-3.6-13.7v-48.4h11.1v47.5c0,3.3.7,6.3,2.2,8.9s3.6,4.6,6.3,6.1c2.7,1.5,5.9,2.2,9.6,2.2s7-.7,9.7-2.2c2.7-1.5,4.8-3.5,6.3-6.1,1.4-2.6,2.2-5.5,2.2-8.9v-47.5Z"/>
  </g>
  <g>
    <g id="_x3C_Radial_Repeat_x3E_">
      <polygon class="st2" points="65.3 429.1 89.8 429.5 96.1 407.1 104.1 429.5 128.5 429 108.9 442.5 117.6 464.5 97.6 450.5 78.6 464.6 85.8 442.5 65.3 429.1"/>
    </g>
    <g id="_x3C_Radial_Repeat_x3E_1" data-name="_x3C_Radial_Repeat_x3E_">
      <polygon class="st2" points="77.8 259.8 102.3 260.3 108.8 238 116.6 260.4 141.1 260 121.4 273.4 130 295.5 110.1 281.4 91 295.4 98.3 273.3 77.8 259.8"/>
    </g>
    <g id="_x3C_Radial_Repeat_x3E_2" data-name="_x3C_Radial_Repeat_x3E_">
      <polygon class="st2" points="173.2 119.8 197.7 120.1 204.1 97.8 212 120.1 236.4 119.7 216.9 133.1 225.6 155.2 205.6 141.2 186.5 155.2 193.7 133.1 173.2 119.8"/>
    </g>
    <g id="_x3C_Radial_Repeat_x3E_3" data-name="_x3C_Radial_Repeat_x3E_">
      <polygon class="st2" points="354.8 24.7 361.6 48.2 384.9 47.7 365.8 61.8 373.4 85.1 354.8 70.3 336.3 85.1 343.8 61.8 324.8 47.7 348 48.2 354.8 24.7"/>
    </g>
    <g id="_x3C_Radial_Repeat_x3E_4" data-name="_x3C_Radial_Repeat_x3E_">
      <polygon class="st2" points="524 37.2 530.8 60.7 554 60.2 535 74.3 542.5 97.6 524 82.8 505.4 97.6 513 74.4 493.9 60.3 517.2 60.7 524 37.2"/>
    </g>
    <g id="_x3C_Radial_Repeat_x3E_5" data-name="_x3C_Radial_Repeat_x3E_">
      <polygon class="st2" points="664.1 132.6 671 156.1 694.2 155.6 675.2 169.7 682.8 193 664.2 178.2 645.7 193 653.2 169.8 634.1 155.7 657.4 156.1 664.1 132.6"/>
    </g>
    <g id="_x3C_Radial_Repeat_x3E_6" data-name="_x3C_Radial_Repeat_x3E_">
      <polygon class="st2" points="766.8 306.5 746.3 320 753.7 342.1 734.5 328.1 714.6 342.2 723.2 320.1 703.5 306.8 728 307.1 735.8 284.7 742.3 307 766.8 306.5"/>
    </g>
    <g id="_x3C_Radial_Repeat_x3E_7" data-name="_x3C_Radial_Repeat_x3E_">
      <polygon class="st2" points="754.3 475.8 733.8 489.2 741 511.3 722 497.2 702 511.3 710.7 489.2 691.1 475.8 715.5 476.2 723.4 453.9 729.8 476.2 754.3 475.8"/>
    </g>
    <g id="_x3C_Radial_Repeat_x3E_8" data-name="_x3C_Radial_Repeat_x3E_">
      <polygon class="st2" points="648.5 648.8 628.8 634.3 610.6 648.8 617.1 626 597 612.2 620.7 612.6 626.4 589.5 634.6 612.6 658.2 612.2 639.6 626 648.5 648.8"/>
    </g>
    <g id="_x3C_Radial_Repeat_x3E_9" data-name="_x3C_Radial_Repeat_x3E_">
      <polygon class="st2" points="495.7 722.6 476 708.1 457.8 722.6 464.3 699.8 444.1 686 467.9 686.4 473.6 663.3 481.7 686.4 505.4 686 486.7 699.8 495.7 722.6"/>
    </g>
    <g id="_x3C_Radial_Repeat_x3E_10" data-name="_x3C_Radial_Repeat_x3E_">
      <polygon class="st2" points="289.9 710.2 298.7 687.3 279.9 673.6 303.6 673.9 311.6 650.8 317.4 673.8 341.2 673.2 321.1 687.2 327.8 709.9 309.5 695.5 289.9 710.2"/>
    </g>
    <g id="_x3C_Radial_Repeat_x3E_11" data-name="_x3C_Radial_Repeat_x3E_">
      <polygon class="st2" points="149.5 614.7 158.5 591.9 139.8 578.1 163.5 578.5 171.6 555.4 177.3 578.5 201.1 578.1 180.9 591.9 187.4 614.7 169.2 600.2 149.5 614.7"/>
    </g>
  </g>
</svg>